<svg width="120" height="42" viewBox="0 0 120 42" fill="none" xmlns="http://www.w3.org/2000/svg">
  <path d="M27.8585 31.6207H21.681L18.1617 24.4896H15.3912V31.6207H10V10.3793H20.483C25.1254 10.3793 27.7836 13.4897 27.7836 17.4345C27.7836 21.1138 25.5747 23.0862 23.5904 23.8069L27.8585 31.6207ZM19.6593 19.7103C21.1194 19.7103 22.28 18.9138 22.28 17.4345C22.28 15.9552 21.1194 15.1586 19.6593 15.1586H15.3912V19.7103H19.6593ZM46.6529 31.6207H31.3029V10.3793H46.6529V15.1586H36.6941V18.4586H46.4283V23.2379H36.6941V26.8414H46.6529V31.6207ZM70.6889 31.6207H64.5489L63.5006 28.5483H55.2265L54.1782 31.6207H48.0382L55.9379 10.3793H62.7518L70.6889 31.6207ZM62.0404 23.8069L59.3823 15.8034L56.7241 23.8069H62.0404ZM82.0329 32C75.5934 32 70.6889 27.5241 70.6889 21C70.6889 14.4379 75.5934 10 82.0329 10C87.0872 10 89.8203 12.8828 91.1681 15.6517L86.5256 17.9276C85.8517 16.2586 84.0547 14.8552 82.0329 14.8552C78.5885 14.8552 76.1924 17.5103 76.1924 21C76.1924 24.4897 78.626 27.1448 82.0329 27.1448C84.0547 27.1448 85.8517 25.7414 86.5256 24.0724L91.1681 26.3103C89.8203 29.0034 87.0872 32 82.0329 32ZM104.122 31.6207H98.7308V15.1586H92.8529V10.3793H110V15.1586H104.122V31.6207Z" fill="#1B58CE"/>
</svg>
