<svg width="101" height="54" viewBox="0 0 101 54" fill="none" xmlns="http://www.w3.org/2000/svg">
  <path d="M22.93 41.64l.34-.37-.64.41-.81.3c-.09 0-.17 0-.3.04-.22.04-.39.08-.52.08-.08.04-.17.04-.21.08-.04.05-.26.05-.6.05l.13-.21-2.27.83c-.08.04-.21.04-.38.09-.17.04-.35.04-.52.04l.65-.3c.17-.08.3-.12.47-.16.17-.13.34-.21.5-.3.18-.04.27-.12.35-.16-.04 0-.04 0-.08.04-.05.04-.09.04-.13.04-.13 0-.34.04-.6.09-.04.04-.04.04-.09.04-.42.2-.85.37-1.28.54-.43.17-.9.3-1.28.46-.05.04-.13.12-.22.17-.08.04-.17.08-.34.08l-.81.2a4.2 4.2 0 0 1-1.07.25c0-.16.04-.28.08-.32h-.08-.05c-.25.12-.47.2-.68.29a1.2 1.2 0 0 1-.77 0c-.17-.04-.26-.13-.26-.25h-.08-.09l-.6-.13c-.04.04-.04.04-.08 0-.05-.04-.09-.04-.09-.08v-.13h-.17c0-.04 0-.12-.04-.25-.05-.12-.05-.2-.09-.29a5.15 5.15 0 0 1-.21-1.17c-.04-.42.08-.8.34-1.13l.09-.08a.68.68 0 0 0 .12-.25c.22-.08.39-.17.47-.2.1-.1.18-.18.35-.26l.72-.3c-.12-.03-.25-.12-.38-.2a.88.88 0 0 1-.34-.42c.04-.54.13-1 .21-1.37.09-.38.22-.8.3-1.22h.04l.09-.08a28.76 28.76 0 0 1 1.67-4.3c.6-1.2 1.2-2.42 1.8-3.67.5-.92 1.02-1.88 1.45-2.8.43-.92.9-1.96 1.37-3.13.26-.54.51-1.08.73-1.59.21-.5.47-1 .68-1.62-.09-.05-.17-.05-.26-.05-.21 0-.38-.04-.47-.08-.17-.04-.34-.04-.42-.08a2.11 2.11 0 0 0-.3-.13.7.7 0 0 0-.26-.12c-.13-.04-.17-.09-.26-.09-.08-.08-.17-.16-.25-.29a.5.5 0 0 0-.22-.2.93.93 0 0 1-.21-.17c-.22-.3-.43-.55-.64-.8a1.8 1.8 0 0 1-.43-.79c0-.04-.04-.13-.17-.3l-.13-.37h.04c-.08-.04-.13-.12-.13-.33.39-.8.99-1.3 1.76-1.55.21.05.43 0 .6-.08.17-.08.38-.17.55-.3l.73-.28.77-.13c.26-.08.51-.2.73-.38l.77-.2h-.05c.18-.05.48-.13.9-.21.39-.09.77-.17 1.12-.3.34-.08.6-.16.77-.25.17-.08.17-.08-.05-.08l.17-.08a49.25 49.25 0 0 1 6.8-1.21l1.5-.13c.56-.04 1.03-.04 1.46-.04.55 0 1.11.04 1.71.08.6.05 1.2.17 1.75.3.35.04.73.16 1.12.29.38.16.72.33 1.07.58.3.25.55.54.77.88.21.33.3.67.3 1v.5c0 .17-.05.34-.09.42h.09c-.05.25-.05.42-.05.5v.2c0 .22-.04.43-.08.55.04.42 0 .88-.13 1.3-.13.45-.3.79-.56 1.08a.5.5 0 0 1-.21.21c-.09.08-.17.12-.21.12l-.18.13h.05a1.6 1.6 0 0 0-.22.25c-.08.13-.17.17-.34.17-.13.12-.38.29-.77.46h-.04v.08l-.34.25-.56.46c-.13.17-.3.38-.56.67l-.08.12c-.43.25-.82.5-1.16.75-.38.21-.77.42-1.15.59l-.22.2c-.08.1-.17.17-.21.3-.13.12-.26.2-.34.3-.09.08-.26.12-.43.12a.88.88 0 0 0-.47.12c-.17.09-.26.17-.3.25a3.68 3.68 0 0 0-1.24.46h.21c-.13.21-.25.34-.43.38-.12.04-.21.04-.3.08v.08c1.16.46 2.19.96 3.13 1.5a8.2 8.2 0 0 1 2.48 2.22c.04.12.04.25.09.3.04.08.08.12.12.16.17.3.35.54.43.8.09.24.17.53.22.87.04.12.04.25.04.46v.37l.13.5c.04.21.12.38.17.55-.05.2-.09.37-.09.5v.87c0 .13-.08.3-.17.46v.17c0 .08 0 .17-.04.3.04.03.04.12 0 .2-.04.09-.04.17-.04.21-.05.17-.13.3-.22.42-.08.12-.26.25-.43.37l-.6.92a18.18 18.18 0 0 1-6.11 3.63h-.26c-.13.13-.26.17-.39.25-.12.09-.17.13-.25.17-.04.04-.13.04-.22.04-.08 0-.21.04-.38.17-.04-.04-.17 0-.39.08-.21.13-.34.21-.38.3l-.9.16-.34.04.21.09-.47.16-.55.46h-.05c-.13.05-.25.09-.3.09h-.43c-.2.12-.42.2-.6.2h-.08c-.04 0-.04.05-.04.13-.05.04-.13.04-.26.04h-.56c-.04 0-.12.09-.17.21-.04-.12-.04-.2-.04-.25-.38.13-.77.25-1.11.38l-1.11.37-.18-.12.65-.25c.21-.09.42-.21.64-.38.17-.12.38-.2.6-.25l.55-.17v-.08h-.04v-.2h.13zm8.3-8.93l.3-.13.34-.12.3-.17v.04l.26-.29c.13-.04.21-.12.3-.17l.25-.41a.99.99 0 0 1 .26-.38c.13-.12.17-.2.13-.2v-.26-.12c0-.05-.09-.13-.22-.3-.04-.12-.17-.2-.3-.29l-.42-.17-.34-.37v.04c-.13-.04-.18-.12-.26-.17-.04-.04-.17-.08-.3-.08a3.95 3.95 0 0 0-.69-.25c-.3-.08-.6-.17-.94-.33l-.34-.13-.34-.08h-.26l-.08.08-.39-.2H28.2c-.17 0-.3 0-.38-.05h.04c-.21-.04-.43-.08-.6-.08l-2.22-.38c-.52-.08-1.07-.17-1.63-.2-.56-.05-1.11-.13-1.67-.17-.13.33-.3.62-.43.91l-.55 1c-.05.3-.17.67-.39 1.1-.21.4-.38.78-.51 1.03-.34.59-.64.92-.9 1-.13.05-.26.13-.38.26-.13.12-.26.25-.39.5a.63.63 0 0 0-.3.08c0 .04 0 .13-.04.17l-.17.25-.05.2c-.04 0-.08.05-.08.1v.16c-.04 0-.09.04-.04.08.04.04 0 .13-.05.21-.04.04-.08.13-.17.2-.08.1-.17.13-.26.13l-.04-.16c-.04.08-.08.08-.04 0l.08-.25-.17.33c-.12.17-.17.25-.12.3l.12.12c-.12.08-.21.12-.25.16-.09.05-.13.09-.13.13l-.26.46-.08-.13c-.05.05-.09.05-.09.09 0 .04-.04.04-.04.08s0 .13.04.21c.04.08 0 .08-.04 0l-.22.5-.21.54-.17.38a.91.91 0 0 1-.13.2c-.04.05-.21.13-.51.26.13-.34.25-.63.34-.8.09-.16.17-.37.21-.54a.38.38 0 0 0-.25.25c-.05.13-.05.21-.05.34l-.42.66h-.05c-.04.09-.08.17-.13.21-.04.09-.08.13-.12.17l-.35.38h-.08c.04.04.04.08-.04.08l-.22.12-.08.09v.12c1.15-.46 2.3-.87 3.46-1.2 1.16-.34 2.31-.72 3.47-1.05 1.8-.54 3.55-1.09 5.26-1.67a35 35 0 0 0 5-2.09l.52-.33zm-4.66-11.69l3.68-2c1.24-.67 2.4-1.3 3.55-1.97.08-.12.21-.25.42-.37.22-.17.35-.25.43-.3.39-.33.73-.62 1.11-.87.35-.25.65-.5.86-.75-.21-.04-.47-.04-.73-.08-.25-.05-.51-.05-.77-.05-.72 0-1.4.05-2.1.13-.68.08-1.32.2-2 .33l.04.09h-.17c0-.13-.05-.17-.09-.13-.04.04-.08.04-.13.04-.04 0-.08 0-.13.04-.04.05-.08.05-.12.05-.05 0-.09 0-.13.04-.04.04-.09.04-.13.04H29.99l-1.88.42c-.05.04-.18.08-.3.16a.75.75 0 0 1-.3.13c-.13.04-.26.12-.47.17-.22.04-.35.12-.43.16v.13l-.34.25v.17c0 .04 0 .08.04.12.08.04.13.08.13.13l.04.12c-.09.25-.17.5-.21.67-.09.17-.13.33-.17.46l-.18.5a16.16 16.16 0 0 0-2.14 3.67c.3-.12.56-.25.82-.41.25-.13.51-.25.81-.42l1.16-.67zm4.15 2.21c-.18.09-.39.17-.6.34-.26.12-.52.25-.73.37.13 0 .26-.04.34-.08h-.04c.04 0 .13-.04.26-.08l.17-.09c.08 0 .17-.04.25-.12h-.08c.38-.25.85-.55 1.37-.84l1.37-.87c.12-.05.21-.13.38-.17.13-.04.26-.13.39-.21l-.17-.08h-.05c0 .04-.04.08-.17.08s-.21.04-.3.04l-.55.34c-.18.2-.39.33-.56.41-.13.09-.26.17-.39.21-.12.04-.25.13-.34.17l-.43.3c.05-.05.13-.05.22-.05h.21l-.55.33zm-9.33 18.5a3 3 0 0 0-.34.12c-.09.04-.17.04-.35.08h.22l.55-.12.56-.34.81-.25.35-.12.5-.08c.14-.05.3-.09.48-.13.17-.04.21-.08.17-.08.04-.05.09-.09.13-.09.26-.12.51-.16.73-.25.21-.04.42-.16.55-.29l.26-.04a.59.59 0 0 0 .17-.13c.04-.04.13-.04.26-.04.04-.04.08 0 .08.04 0 .05 0 .05.05-.08-.18.04-.39.08-.56.13-.17.04-.39.12-.6.2l.04.09c-.72.25-1.4.46-2.14.67-.72.16-1.36.41-1.92.7zm2.48-.38l-.13.08c.04 0 .13.09.22.21.04-.12.12-.2.17-.25l.13-.17-.39.13zm6.25-18.66c-.05 0-.09 0-.09.04s-.04.04-.04.04h.08c0 .05.05 0 .05-.08zM15.27 36.34l.04-.13v-.12.08l-.04.17zm8.3 4.84h-.04c-.04 0-.09 0-.13.04l.17-.04zm0 0c.13-.04.17-.04.21-.04-.08.04-.12.04-.2.04zm6.08-18.2h-.05.05zM17.4 33.3c.04 0 .04.04 0 0zm44.37-11.52v.34l-.64.66-.26.21c-.34.13-.51.25-.51.38l-.3.12c-.13 0-.26.09-.35.21l-.55.21-.17.08-.35.09c0 .04-.04.08-.12.12a.56.56 0 0 1-.26.04l-.3.09h-.09c-.12.12-.17.16-.21.16h-.13a.33.33 0 0 0-.21.09v.04c-.04.04-.09.08-.17.08l-.17.09-.05.04c-.08.08-.25.12-.51.17l-.04.04s-.05 0-.05.04l-.08.08-.3.21-.39.17c-.12.04-.21.08-.38.12-.13.05-.17.05-.13.05-.13 0-.17 0-.21.04l-.09.08-.43.25-.13.17v-.04l-.12.16v.05h.04c.08-.09.17-.13.21-.13v.13l-.08.04c0 .04-.05.08-.13.08-.09 0-.13.08-.13.2-.13.05-.17.05-.17.1v.03c-.04.05-.13.05-.26.05V27.57c0 .13.05.25.05.42 0 .17.04.34.04.46.04.17.04.25.08.25.05.38.13.92.26 1.59s.21 1.33.3 2.04a53 53 0 0 0 .26 1.88c.08.54.13.88.13 1.04h-.13c.04.17.08.26.08.21 0-.04.05.05.05.25V35.88c.04.08.04.17.08.3.04.12 0 .24-.04.33l-.17.08c-.05-.04-.05-.04-.05-.08v.25h-.12v-.38c0-.04-.05-.12-.05-.17.09.26.09.63 0 1.09v.2c0 .05 0 .13-.04.18-.04.08-.04.12-.04.16-.05-.04-.09-.04-.09 0s-.04.04-.08.04h-.05l-.04.05h-.04-.04v.25h-.09c-.04.12-.04.2 0 .25v.46c0 .04-.09.08-.26.12l-.21.04h-.26l-.38-.08c-.22-.04-.43-.04-.6-.08a1.03 1.03 0 0 1-.47-.25l-.43-.67a.9.9 0 0 0-.21-.34.45.45 0 0 1-.13-.29c-.05-.17-.05-.33-.09-.46a2.83 2.83 0 0 0-.13-.33c-.04-.13-.08-.21-.12-.38a1.9 1.9 0 0 1-.09-.58v-.13-.12L50.23 34v-.16-.26c0-.04-.05-.2-.13-.5-.09-.29-.17-.62-.26-1-.08-.37-.17-.7-.21-1-.09-.3-.09-.46-.09-.5l-.04-.8-.73-1.96-.04.09c-.04.04-.09.08-.09.04 0 0-.04 0-.08.04l-.05-.08.05-.13-.26.3h-.08l-.82.08c-.04-.04-.04-.04-.04-.09 0-.04-.04 0-.09.09-.04 0-.08-.04-.04-.09 0-.04 0-.04-.08.05l-.09.04v.08h.09l-.18.17c-.08.08-.12.08-.17.08l-.13.21c.13-.12.35-.2.65-.3l-.09.13-.47.34-.47.25c-.04.2-.13.33-.34.42l-.6 1.29c-.09.17-.17.38-.3.58-.13.21-.21.5-.39.88-.25.38-.42.75-.6 1.17l-.55 1.38h-.26c-.04.16-.08.41-.13.7l-.08.5-.13.13a.67.67 0 0 0-.13.25.4.4 0 0 0-.3.13c-.08 0-.13.04-.13.12 0 .09-.04.17-.04.21 0 .04 0 .04-.04.04s-.04.05-.04.05c.04.04.08.12.04.16 0 .09-.04.13-.04.21v.17h-.13c-.05-.13-.09-.17-.09-.25l-.08.2-.26.34c-.09.13-.17.3-.22.5l-.25.21-.13.13c-.04.04-.04.12-.04.25-.05.04-.09 0-.09-.05v-.16-.04-.05h-.13l-.04.05c-.04.04-.04.04-.09.04h-.25l-.04.04h-.22c-.04.04-.04 0 0-.13.04-.12.04-.16-.04-.12l-.22.33c-.04.09-.17.13-.3.17h-.17c-.04 0-.04 0-.08-.04h-.94c-.17 0-.34-.04-.47-.04a.7.7 0 0 1-.26-.13l-.13-.7c0-.13 0-.26.04-.3.05-.08.05-.13.05-.17v-.2c.13-.34.25-.67.38-.97.13-.29.22-.58.3-.87.09-.3.17-.63.3-.96.13-.34.22-.75.39-1.21.21-.63.42-1.21.6-1.84.17-.58.42-1.25.8-1.96-.03-.04-.03-.13 0-.21 0-.08-.03-.13-.12-.13.13-.16.17-.25.09-.25-.09 0-.09-.04 0-.08l.64-.33c.34-.76.68-1.5 1.07-2.22.38-.7.72-1.42 1.1-2.13.3-.54.65-1.16 1.04-1.92.38-.75.68-1.41.98-2l-.21.17-.52.12c-.13.13-.3.21-.51.34-.17.12-.34.2-.51.25h-.3a.66.66 0 0 1-.35-.25c-.08-.13-.21-.25-.3-.34l-.34-.12-.13-.25-.17-.04h-.04l-.17-.09h-.81l-.09-.17v-.25l-.09-.04c-.12-.12-.2-.37-.34-.7.05-.22.13-.42.3-.55l.22-.38.42-.12c.13-.08.22-.13.35-.17l.68-.12c.26-.09.47-.17.64-.3.22-.04.43-.08.56-.08.17 0 .3-.04.47-.08.17-.04.43-.13.73-.17.3-.04.64-.17 1.07-.3.34-.12.77-.24 1.28-.33l1.45-.25c.18-.04.39-.04.56-.08l.56-.12c1.02-.21 2.18-.38 3.42-.42 1.24-.04 2.52-.09 3.8-.09h.65c1.2.05 2.35.26 3.47.55 1.1.33 1.92.92 2.48 1.75v.13c.04.04.04.12.08.2.04.09 0 .21-.04.3h.08c.05.08.09.16.05.2a.58.58 0 0 1-.13.17c-.04.04-.04.09-.04.13 0 .04 0 .04-.05.08l.17.59c.05.04.05.08.05.2.04.3.04.59-.05.92-.08.3-.25.55-.47.67-.12.2-.17.33-.25.33v.09l-.22.29h-.25c-.13.04-.22.08-.39.08l-.04-.08v.13h-.17v-.34zm-8.47 1.21c.12-.08.3-.12.42-.16.18-.05.3-.13.43-.21.13-.05.3-.13.47-.17a11.23 11.23 0 0 0 2.48-1.09c.56-.29 1.16-.7 1.84-1.12l.26-.21c.56-.42.86-.67.86-.84 0-.2-.22-.37-.6-.46a6.78 6.78 0 0 0-1.41-.12h-.56c-.17 0-.39 0-.56.04l-1.67.13c-.6.08-1.15.12-1.7.2l-.86.17-.34.09-.77.12c-.22.04-.43.13-.65.25.13.3.17.54.13.71-.04.17-.13.38-.26.54-.12.25-.25.5-.42.71-.13.21-.22.38-.3.55-.05.25-.17.5-.39.66l-.55.75-.26.38c-.04.13-.13.33-.26.54-.13.21-.21.42-.34.55.81-.38 1.63-.76 2.48-1.09.9-.3 1.76-.63 2.53-.92zm8.9-1.63a.23.23 0 0 0-.13.21l.21-.2h-.08zm-18.96 13.2c.04-.09.04-.13.09-.13l-.09.13zm10.7-7.81l-.13.04h.04c0-.04.05-.04.09-.04zM40.9 38.39v.12-.12zm29.14-15.24c-.05 0-.09 0-.09.04s-.04.04-.09.04c0 .04 0 .09.05.09.04 0 .04 0 0 .04h-.13c.13.08.13.12.04.16-.08.05-.08.09-.04.09-.09.04-.13.12-.09.17 0 .04.05.08.09.08-.04.08-.09.17-.13.3a.75.75 0 0 1-.21.28c0 .25-.09.46-.22.63-.13.17-.25.33-.3.54h.17c.05.04 0 .13-.04.17-.08.04-.13.12-.17.17 0 .16-.04.33-.17.46a.86.86 0 0 0-.26.41l.13-.12c.04-.09.09-.13.21-.13-.12.21-.2.42-.25.59a.97.97 0 0 1-.34.54h.04l-.13.37a.48.48 0 0 1-.21.3c.04.04.04.04-.05.08-.08.04-.04.08.09.13-.22.08-.34.16-.34.25 0 .08-.05.12-.09.16h.04c.05 0 .09 0 .09-.04.04 0 .04 0 0 .04-.04.05 0 .05.04.05l-.13.25c.05.04 0 .12-.08.2-.09.09-.17.21-.17.3.08-.05.13-.05.17-.09.04-.04.08-.04.13-.08l-.05.04h.05c-.05.04-.13.08-.17.13-.05.04-.13.12-.26.16 0 .05.04.05.08 0 .09-.04.09 0 0 .05h-.12v-.09c-.13 0-.22.04-.22.13h.13a.32.32 0 0 0-.09.2h.13c0 .05-.04.05-.08.05-.09 0-.09 0-.09.04h.13-.13c0 .08 0 .08.04.04.05-.04.09-.04.13 0-.13 0-.17.04-.13.08 0 .05 0 .09-.04.13.13 0 .17 0 .22-.04l.12-.13c.09.09.05.13-.08.17-.13.04-.17.08-.09.12-.17.05-.25.13-.3.17h.13a.31.31 0 0 0-.08.17c0 .08-.05.12-.09.17.04.04.09.04.13 0 .04-.05.08-.09.17-.05 0 .05 0 .09-.04.13-.05.04-.05.08-.09.12-.04 0-.08 0-.04-.04s0-.04-.04-.04c0-.04 0 0 0 0 0 .04-.05.04-.09.04 0-.04 0-.04.04-.04.05 0 .05 0 .05-.04-.13.04-.17.04-.17.08s0 .09.04.04c.04-.04.08-.04.13 0l-.17.13v-.08c-.09 0-.13.04-.13.08-.13.12-.13.17-.05.25.05 0 .09 0 .09-.04s.04-.04.09-.04c.04.04.04.04-.05.08-.08.04-.08.04-.04.04-.13.13-.17.21-.13.38-.13 0-.17.04-.17.08 0 .08-.04.13-.09.17.09-.04.13-.04.13-.09 0-.04.05-.08.05-.12.04 0 .04 0 0 .04-.05.04 0 .08.04.13.04 0 .08 0 .08-.05 0-.04.05-.04.09 0-.04.13-.13.17-.17.13a.86.86 0 0 0-.26.42l-.13.41-.04.05a.51.51 0 0 0-.21.2c-.09.09-.13.17-.13.21.04.05.08.05.13 0 .04-.04.08 0 .08.05-.08.04-.13.08-.13.12.13 0 .22-.04.22-.08s.04-.09.13-.13v.13c0 .12-.13.25-.35.33-.08-.04-.08-.04.05-.08s.08-.09-.05-.13c0 .04-.04.09-.08.13-.04.08-.09.12-.09.16l.17-.08c.05-.04.13-.04.22-.04 0 .04-.04.08-.09.12a.59.59 0 0 0-.17.13h.09c-.05.04-.09.17-.09.3 0 .12-.04.24-.13.28l.05.05c-.18.08-.3.2-.3.46-.05.12-.09.2-.13.33-.04.12-.04.25-.09.33l.05.04c.08-.04.12-.04.08-.08-.04-.04 0-.08.09-.08 0 .12-.05.2-.13.29-.04 0-.09 0-.04-.04 0-.04 0-.04 0 0-.05.04-.1.12-.13.33h.04c-.09.04-.13.13-.17.21-.04.08-.04.17 0 .21a.91.91 0 0 0 .17-.2c.04-.1.04-.18 0-.22h.09c0-.12 0-.16.04-.2.13.12.13.2.04.29-.08.08-.08.16-.08.2h.04c-.04.13-.04.25-.09.34-.04.08-.04.25 0 .42-.08 0-.13 0-.17-.05-.04-.04-.08-.04-.13 0-.13.05-.17.13-.13.17.05.04.05.13 0 .21.09.13.05.2-.04.33-.13.13-.08.25.04.38-.12 0-.17.04-.17.12-.08-.04-.13-.12-.08-.2v-.21c0-.04-.05-.04-.09-.04-.08 0-.04.04 0 .08-.21-.13-.34-.13-.34 0-.04 0-.09 0-.04-.04.04-.04-.05-.04-.17-.04 0-.05.04-.13.08-.17h-.3c-.04.04-.08.04-.04.08s0 .04-.09.04c.09.05.13.09.13.13 0 .04.04.08.09.12h-.17c-.05.13-.09.25-.05.38.05.13-.08.2-.3.3.13-.13.18-.26.05-.43-.13-.12-.13-.25-.09-.41h-.04c-.04 0-.04 0 0-.04.04 0 .04 0 .04-.05 0-.04 0-.08-.04-.08-.13.08-.22.08-.22-.04-.12.04-.12.08 0 .08.13 0 .13.04.05.09 0 .04 0 .04.04.08s.04.08.04.12h-.34c.09.13.09.21 0 .3l-.17.2c-.13 0-.21 0-.26-.04-.04-.04-.13-.04-.25 0-.13.05-.17.09-.22.17-.04.08-.04.17-.08.2l-.73.13c-.17.09-.43.09-.77.09-.39-.17-.6-.5-.64-.88-.05-.7 0-1.42.17-2.04.17-.63.34-1.26.55-1.84.43-1.67.99-3.26 1.59-4.72.6-1.5 1.24-3 1.88-4.5.04-.09.13-.3.3-.63l.6-1.21c.21-.5.47-1 .73-1.59.25-.54.51-1.08.72-1.63.22-.54.43-1 .65-1.42l.38-.91c.3-.5.56-.96.73-1.42.04-.21.17-.42.38-.63l.52-.63c.21-.04.38-.16.51-.29.13-.17.3-.25.56-.33 0-.04.04-.09.12-.09.09 0 .18-.04.22-.08.04-.04.08-.04.08 0s.05 0 .09 0c.04.04.04.04.08.04.05 0 .05 0 .05.04.55.25.98.46 1.28.63.3.17.69.42 1.16.71.12.04.21.17.3.33.04.17 0 .34-.13.5-.13.13-.22.26-.3.38-.09.13-.17.33-.3.5-.13.17-.26.38-.34.59l-.26.62c-.34.5-.64.96-.81 1.46-.17.5-.39.96-.69 1.42-.17.13-.21.3-.17.42.04.17 0 .3-.17.42.04.04 0 .04 0 .04s.04.2.09.25zm-6.3 10.94c-.17.16-.2.33-.3.5-.04.12-.12.29-.16.5h.04c-.04.2-.17.46-.34.67-.18.25-.3.5-.47.75.04 0 .08 0 .08.04s.04.04.09 0c.08-.04.12-.13.17-.17.04-.08.08-.12.13-.2.25-.05.42-.09.5-.13 0-.04-.03-.09-.08-.04-.04.04-.08 0-.08-.05.13 0 .21-.04.21-.08 0-.08-.04-.12-.08-.17 0-.04 0-.08.04-.12.04-.04.04-.13.04-.17.09-.12.17-.25.3-.37.13-.13.17-.25.17-.46-.08 0-.13 0-.13.04s-.04.08-.08.08c0-.04-.04-.04-.09 0-.04.04-.13.04-.17 0 0-.08.04-.16.13-.29.09-.13.17-.2.17-.38h-.08c.17-.04.17-.08.12-.12-.04-.04 0-.13.09-.17-.04-.04-.09 0-.13 0-.04 0-.08.04-.13 0-.08.04-.08.09-.04.13.04.04.04.08 0 .12l.09.09zm.52-.96c.04-.17.13-.3.21-.46l.26-.42h-.17c-.04 0-.09 0-.04-.04h.21a.66.66 0 0 0 .13-.38c0-.12.08-.2.21-.37-.04 0-.08.04-.13.08-.04.04-.08.08-.17.04l.35-.5a.82.82 0 0 0 .17-.54c.12-.04.21-.17.25-.3.09-.16.09-.24.05-.33 0 .04 0 .04-.05.04h-.13c-.17.42-.42.88-.64 1.3v.12h-.04c0 .17-.04.34-.17.42-.13.08-.17.2-.17.38h-.17c0 .04.04.04.08.04.05 0 .09.04.13.08-.13 0-.21 0-.21.04v.13c-.13.12-.17.2-.17.29 0 .08 0 .2-.05.33h.09c0 .09.08.05.17.05zm1.58-4.18c.05 0 .09 0 .13-.04l.04-.04c.05-.17.13-.34.22-.5.08-.13.13-.3.17-.46h-.04v-.09c.04-.04.04-.16.08-.29.04-.12.04-.2.04-.29-.08.2-.17.42-.34.63-.17.2-.21.37-.3.58-.04.08 0 .13.05.08.04-.04.08 0 .08.05-.17 0-.26.04-.26.08h.05l.04.04c-.26.08-.39.17-.39.25.05 0 .09 0 .05-.04 0-.04.04-.04.13-.04-.09.08-.13.16-.13.2 0 .05-.05.13-.17.22.21-.05.3-.13.3-.21.08 0 .12-.04.25-.13zm1.54-1.63c.05-.12.13-.29.22-.41l.25-.46h-.34a.26.26 0 0 0 0 .25c0 .08-.04.16-.17.2 0 .05 0 .09.04.05.05-.04.05 0 .05.04-.13.04-.18.12-.18.2 0 .1-.04.18-.08.26h.13l.08-.13zm-2.65 5.93c0-.04 0-.08-.04-.12-.05-.05 0-.09.08-.17a.93.93 0 0 0-.38.3c-.09.12-.17.24-.26.33.09 0 .09 0 .04.04-.04.04-.04.08-.04.12.13-.04.22-.12.22-.25.04-.08.17-.17.38-.25zm.26-3.38c.13 0 .17-.08.17-.2-.09 0-.13 0-.17.03-.05.04-.09.09-.22.13.13.04.13.08.09.04-.04-.04-.09 0-.09 0v.25c-.04.04-.04.04-.08.04a.9.9 0 0 0-.13.21c-.04.08-.04.17 0 .2.08-.16.17-.28.26-.4.12-.05.17-.17.17-.3zm-.77 3.3a.44.44 0 0 0-.26.2c-.04.09-.09.17-.17.22.21.08.34.04.34-.09 0-.12 0-.25.09-.33zM63.1 36.3c-.04.08-.08.17-.08.3 0 .12 0 .2-.04.37h.04c.04-.13.08-.25.17-.34.04-.12.04-.2-.09-.33zm2.31-7.18c-.04.08-.12.17-.17.25-.04.08-.04.17 0 .2l.17-.24c.05-.04.05-.13 0-.21zm2.53-3c.08.12 0 .2-.3.29 0-.17.08-.26.3-.3zm-.81 1.62c-.05 0-.05 0 0 0-.18 0-.26.04-.26.08 0 .05-.04.09-.09.17.13-.04.22-.08.22-.12 0-.05.04-.05.13-.13zm-.3 1.8v-.13c-.05.04-.09.08-.09.13 0 .04 0 .08.04.12v-.04c0-.04.05-.08.05-.08zm-.05.54c-.12.04-.17.08-.17.17v.25a.45.45 0 0 1 .13-.21c.04-.04.04-.13.04-.21zm-4.53 6.3c-.04.04-.13.09-.17.17-.05.08-.05.12.08.17.05-.09.05-.13.05-.17 0-.04.04-.08.04-.17zm3.76-7.1c-.12 0-.17.05-.17.09 0 .04-.04.12-.04.17h.04l.13-.13c0-.04 0-.08.04-.12zm.47-.5c-.08 0-.12.05-.17.09-.04.04 0 .08.05.12.04-.04.08-.12.12-.2zm-3.93 7.9h-.13v.08c.21.04.26 0 .13-.09zm4.15-8.4c-.13.05-.22.09-.22.17l.05.04c0-.04.04-.08.08-.08.05 0 .09-.08.09-.13zm-1.37 1.59c.08.08.04.13-.09.13 0-.09 0-.13.09-.13zm-.09-1.13s.05 0 0 0c.05 0 0 0 0 0zm0 1.38c-.12.04-.17.04-.12.04.04 0 0 .04-.05.09.09.04.17 0 .17-.13zm-1.1 4.17c-.05 0-.14.05-.27.13.05.04.13.04.18 0 .04-.04.08-.08.08-.13zm-.74-.7h-.12v.12c.08 0 .12-.04.12-.13zm.77.25v.12c.05 0 .09-.04.09-.08s-.04-.04-.09-.04zm.17 2.67c0 .12-.04.16-.08.16.04-.08.04-.12.08-.16zm-1.62.12c0-.04-.04-.08-.09-.08-.04 0-.08.04-.04.08s.09 0 .04 0c-.04 0 0-.04.09 0zm3.9-5.93c0 .13-.05.17-.14.17.05-.12.09-.17.13-.17zm.2-2.46c-.04 0-.08 0-.04.04v.09c.09 0 .13 0 .09-.04-.04-.05-.04-.05-.04-.09zm-1.4 1.34l-.05.04.09-.08-.05.04zm-.52 5.67h-.08l.04.09c.04 0 .04 0 .04-.09zM67.04 30s-.04 0 0 0zm0 0h0zm12.28 7.13l.21-.08h.13l-.04-.17c-.09-.08-.09-.04 0 .13l-.09-.04c0-.09 0-.17.05-.21l-.22.08c.05 0 .09.04.17.13l-.17.08c-.04-.04-.04-.04-.04-.08l-.04.08.04.08zm.26-.37s.04 0 0 0zm-.3.37l-.35.09-.3.12c0-.04 0-.04-.04-.08l-.17-.04c-.13.04-.17.08-.21.04l-.43.2a1 1 0 0 1-.47.13h.08c-.04.04 0 .04.09.04.04.05.13.05.17.05.09.04.13.08.09.08-.05.04-.13.08-.22.12-.08.05-.17.09-.21.05a.52.52 0 0 1-.34.16c-.09 0-.22 0-.3.05a.56.56 0 0 1-.26.04c-.09 0-.17.04-.34.08l-.04-.12c-.09 0-.13-.05-.18-.13l-.17.08v.09l.13.04c-.04.04-.04.04-.08.04-.05.04-.09.04-.18.04l.05-.08a.82.82 0 0 0-.34.08.9.9 0 0 1-.26.17c-.13.04-.26.12-.3.2-.09.1-.13.17-.17.22l-.17.16c-.13.21-.26.34-.35.42-.08.08-.17.08-.21.08a.73.73 0 0 1-.21.09h-.3c0 .04 0 .04-.05.04H73.07c-.04-.04-.04-.08-.04-.04v-.09h-.09c-.04 0-.04-.04-.04-.12l-.04.04c-.04-.04-.13-.08-.34-.12-.17-.05-.3-.05-.39 0-.17-.21-.25-.38-.21-.5.04-.05.04-.09 0-.09H72l.13-.12c.04-.05.04-.05-.08-.05-.09 0-.13 0-.17-.04h-.05V38.72h-.43a2.33 2.33 0 0 0-.25-.33c-.09-.09-.26-.21-.43-.3-.04-.04-.09-.12-.13-.2l-.13-.26-.21-.37c0-.13 0-.21.04-.25.04-.04.04-.09.09-.09.04-.04.04-.04 0-.04v-.04c.13-.17.21-.33.34-.37.13-.09.3-.13.47-.17l.56-.5 1.1-.5.4-.21.64-.38c.17-.04.34-.12.47-.16a.66.66 0 0 0 .25-.17l.22-.17c.08-.04.17-.12.3-.17l2.4-1.46c.2-.12.42-.25.68-.37.21-.13.43-.25.6-.38l.85-.46c-.04-.04.04-.12.3-.29l.47-.3v.05l.3-.17.3-.08.04-.08h.09c.21-.13.38-.21.47-.3l.26-.16c.04-.04.13-.04.17-.04.04 0 .13-.05.21-.09l.56-.37a.66.66 0 0 0 .34-.25c.09-.13.13-.17.09-.25 0-.05-.05-.09-.13-.09-.09 0-.17 0-.22-.04-.17-.13-.38-.17-.68-.13-.04 0-.13 0-.21.05-.09.04-.18.04-.22.08h-.08a.7.7 0 0 0-.26-.13c-.13-.04-.17-.04-.17 0l.08.09a.7.7 0 0 0-.38.12v-.04a.33.33 0 0 1-.17.09h-.17c0-.05 0-.09-.05-.09-.04 0 0 0 .05-.04-.13 0-.18.04-.22.17h-.08c-.05 0-.05 0-.09.04a.33.33 0 0 1-.21.08v-.04h-.17c-.05 0-.09.04-.13.08 0 .05-.05 0-.09-.04 0 .04-.04.04-.13.04-.08 0-.17 0-.21.05H79.02c-.04-.05-.04-.05-.04 0v-.05h-.26c-.08 0-.13 0-.17.05h-.21c-.26.12-.43.16-.52.16h-.04c-.04 0-.09-.04-.13-.08l-.13.12c-.04.05-.08 0-.08-.04h-.05c-.04 0-.08.04-.12.09l-.09-.09c-.04-.04-.04-.08-.04-.12-.05.04-.09.04-.13 0-.04.04-.04.04 0 .08h-.26l-.08.04c-.13 0-.22.04-.3.09-.13.04-.22.08-.26.08h-.17c-.04 0-.09 0-.13-.04-.04-.04-.17 0-.38.04-.22.08-.43.12-.65.17-.2.04-.47.04-.77.04h-.3a1.79 1.79 0 0 1-1.1-.8c-.26-.41-.56-.83-.78-1.25-.04-.16-.08-.25-.08-.29v-.2-.09l-.05-.3v-.16c0-.08 0-.17.05-.21.04-.17.08-.38.04-.54-.04-.17 0-.38.13-.59v0-.04l.25-.33c.18-.34.39-.63.69-.88.13-.25.21-.5.3-.63.08-.12.17-.33.43-.54v.04c.42-.5.85-.91 1.2-1.29l1.06-1.09c.35-.33.73-.66 1.12-1 .38-.33.85-.7 1.4-1.08.14-.04.27-.13.4-.25.16-.13.25-.21.34-.34l.8-.58 1.08-.63c.13-.08.26-.16.3-.2a.75.75 0 0 1 .21-.17v.04l.17-.21.69-.33c.21-.13.38-.21.51-.3.13-.08.26-.16.34-.25l.39-.25c.17-.08.34-.16.6-.33.17-.08.47-.13.85-.13h1.16c.43.05.81.09 1.15.17.35.08.6.2.73.3v-.13c.09 0 .17.04.3.16.13.13.26.17.43.25l.25.09c.13.04.22.04.35.04.13 0 .17.04.25.08l.56.46.09.09c.04.04.12.04.25.08.04.17.13.3.22.38l.04.16.08.09c.05.04.05.04.09.04v.45c-.04.05-.04.13-.04.34 0 .25-.05.46-.13.67-.09.2-.17.37-.22.58l-.2.71c-.1.13-.14.21-.14.25 0 .09 0 .13-.04.21l.04.46v.42c-.13.04-.17.08-.25.08l.04.67v.58l.04.3c-.04-.05-.08-.05-.13 0-.08.08-.13.08-.13.08v.04c0 .04 0 .09-.04.13-.04.04-.04.08-.04.12l-.21.25h-.13c-.13.04-.17.04-.22.09a.59.59 0 0 1-.17.12l-.43.17c-.12.04-.3.08-.55.12-.17 0-.34 0-.47.05-.17.04-.35-.05-.56-.21-.04 0-.08 0-.13-.05-.08-.04-.13-.04-.13-.04-.04 0-.12 0-.17-.04-.04-.04-.08-.04-.13-.04l-.2-.17c-.14-.12-.18-.16-.18-.2-.17-.13-.26-.3-.3-.6-.04-.28-.04-.53-.09-.74a.9.9 0 0 1 .05-.59c.08-.16.17-.37.21-.58v.04c0-.04 0-.04.04-.04.05 0 .05-.04.05-.04 0-.13.04-.3.17-.55.04-.12.08-.16.13-.25l.04-.04c.04 0 .04 0 .04-.04s0-.08.04-.12c-.3.04-.64.16-1.02.29-.39.12-.69.25-.9.42v-.05l-.26.17c-.43.25-.9.54-1.5.92-.55.37-1.06.7-1.45 1l-.26.17c-.12.12-.25.25-.38.33-.13.09-.26.17-.43.21l-.85.63c-.3.12-.69.37-1.12.75-.21.12-.38.25-.55.37-.13.13-.26.25-.43.38-.09.12-.13.17-.17.17l-.09.04c-.13.04-.08.17.13.42h.39c.2.04.5.04.85 0 .34 0 .73-.05 1.11-.09l1.07-.12c.35-.04.65-.09.86-.13.77-.08 1.67-.12 2.7-.12h.94c.25 0 .6.04.94.08h.17c.3.13.6.2.94.33.3.13.6.25.81.42 0 .04.05.04.09.04.04 0 .04 0 .08.04.05.09.13.17.22.21.08.09.17.13.21.21.04.04.04.13.04.21v.13c.05.04.09.12.13.2.05.09.09.13.13.17l.13.17c.04.08.08.12.08.17.05.12.13.25.22.37.08.13.17.21.17.34.13.12.21.25.26.45.04.21-.05.38-.17.5l-.26 1.76c-.04.17-.13.33-.3.54-.04.13-.17.25-.43.5-.08.09-.17.17-.3.25l-.38.25c-.05.13-.13.17-.17.25-.13.05-.22.13-.39.17-.17.04-.26.13-.34.17-.3.16-.6.29-.9.41-.3.13-.56.21-.77.3.26-.13.38-.17.38-.21 0-.04-.17.08-.55.3-.3.16-.56.28-.77.28l-.22.25c-.3.13-.55.21-.77.34-.21.12-.42.2-.64.29l-.34.12-.09.05-.17.25-.21.04-.3.25-.38.2c-.05.05-.05.1 0 .13.04.04.04.04-.1 0-.12.04-.2.04-.29 0h-.13l-.08.09c-.05.04-.13 0-.26-.05l.08.09h-.17c-.04 0-.12.08-.3.2-.17.13-.25.22-.3.22.05.04 0 .12-.08.2l.17-.12.04.2c-.17.13-.42.17-.77.26l.05-.17.17.04zm-3.25 1.3c0 .04-.05.04-.13.04-.09 0-.17.04-.22.04-.13.08-.21.13-.34.13-.13 0-.21.04-.26.08l-.55.5c.08-.12.17-.25.21-.42.09-.12.13-.2.22-.25l.47-.16c.04.04.12.04.21 0l.3-.09.09.13zm.17-.42h-.13.13zm-2.74 1.17c.04 0 .04 0 .08-.04h.05l-.13.04zm-.13-.04c-.04 0-.04 0 0 0zm13.1-15.57c-.05-.05-.1-.09-.05-.09l.04.09z" fill="#1B58CE"/>
</svg>
