<svg width="100" height="100" fill="none" xmlns="http://www.w3.org/2000/svg" xmlns:xlink="http://www.w3.org/1999/xlink">
  <defs>
    <path id="b" d="M14 103v-1 1h-4 1l-3 1H6h2l1-1H8v1H6l-2 1H3a7 7 0 0 1-2 1v-1l-1 1h-1v-1h-2v-4h1v-1h2l-1-1v-4h1l2-6a415 415 0 0 0 6-13l1-2 1-2H8l-1-1H6l-1-2v-1l-1-1h1-1l3-2 1-1h2l1-1h2l2-1h1a63 63 0 0 1 9-2h6a15 15 0 0 1 4 1l1 1 1 1 1 1v1h-1 1l-1 1v3a4 4 0 0 1-1 2h-1v1h-1l-1 1-1 1-2 1-1 1-1 1h-1v1h-1a5 5 0 0 0-1 0l-1 1 4 2 3 3v1h1v2l1 1v5h-1v1l-1 2a24 24 0 0 1-8 4h-1v1h-2v1h-2l-1 1h-2v1h-3l-1 1v-1h1l1-1h1zm11-12v-1h1l1-1 1-1-1-1h-1v-1h-1l-1-1h-4v-1h-5l-3-1v2l-1 1v1l-1 2-1 1-1 1H7v2H6v1H5v2l-1 1-1 1 1-1v-1 1l-1 1-1 1 4-1 5-2a199 199 0 0 0 13-5h1zm-6-16l5-3a173 173 0 0 0 8-6h-5l-2 1h-2l-2 1h-2v1h-1l1 1-1 1v1l-3 5 1-1h1l2-1zm5 3h-1l-1 1h1v-1h1l1-1 2-1h1v-1l-1 1-1 1h-2 1l-1 1zm-12 25h-1 1l1-1h3v-1h2v-1h1c0 1 0 1 0 0l-1 1h-1l-3 1-2 1zm3-1v1l1-1h-1zm8-25zM4 96v-1 1zm11 6zm0 0zm8-24zM7 91zm58-15l-1 1v1h-2v1h-2v1h-2l-1 1h-1l-1 1v1h-1v2l1 2a41 41 0 0 1 1 6v3h-1v-1 3c0-1 0-1 0 0v1h-3l-1-1v-2h-1v-5l-1-1v-3l-1-3h-2v1h-1 1-1v1h-1l-1 2v2l-1 2-1 1v1l-1 1v1h-1v1l-1 1v1h-1v-1l-1 1h-3v-2l1-1v-2l1-1v-1l1-3 1-3v-1h1l1-3 2-3 1-2 1-3h-1v1h-2v-1h-2l-1-1v-2h1l1-1h3l1-1h3l2-1h1l5-1h5l5 1 3 2v1s1 0 0 0v4l-1 1h-1zm-11 2v-1h2l3-2 2-1h1l1-2H53l-1 1h-1v2l-1 1-1 1-1 1v1l-1 1 4-1 3-1zm12-3l-1 1 1-1zM41 93zm14-10zM38 98zm38-20c-1 0-1 0 0 0l-1 1h1-1v1l-1 1h1-1v2a268 268 0 0 0-1 1h1-1v2l-1 1h1v-1 1h-1c0 1 0 1 0 0v2s0-1 0 0h-1 1-1v3h-1 1l-1 1v-1 2l-1 1h1c-1 0 0 0 0 0l-1 1v-1 1h1-1v3h-1v-1h-2c1 0 1 0 0 0l1 1h-2v1h-2l-1-1v-3l1-2 2-7 3-6v-1l1-1 1-3 1-2v-2l1-1 1-2v-1h1l1-1h1v-1c0 1 0 0 0 0v1h2l2 1v2h-1v1l-1 1-1 2-1 2v2zm-8 14l-1 1v2l-1 1 1-1v-1h1v-1h-1 1v-1c-1 0-1 0 0 0zm0-1h1v-3h1v-1l-1 2-1 1h1-1v1zm2-5l1-1v-2 1l-1 1h1-1v1zm2-3h1v-1 1h-1v1-1zm-3 8h-1v1l1-1zm0-4zm-1 4zm-1 4zm3-9zm3-4zm-1 2zm0 2v1-1zm0 1h-1v1l1-1zm-6 9h-1 1zm5-10h-1 1zm0-1zm-5 11zm5-11zm-1 2zm0-2zm0 2h-1 1zm-2 6zm-1-1zm1 0zm0 4zm-2 0zm5-8zm1-3zm-2 1zm-1 8zm3-7zm0 0zm16 10v-1h1-1v1zm0-1zm0 1h-3 1c-1 0 0 0 0 0v1h-4v1l-1 1h-2l-1-1h1l-1-1v1l-1-1-1-1v-1h1v-1h1l2-1 1-1h1l1-1 3-2h1v-1h2v-1h1l1-1h1l1-1v-1h-2l-1 1v-1 1h-7l-1 1h-1l-2-1-1-2v-3l1-1 1-1v-1h1l1-2 2-2 1-1a20 20 0 0 1 2-2h1l1-1 1-1h1v-1h2v-1h1v-1h5l1 1h1l1 1h1v5h-1v5h-2v1h-1l-1-1h-1v-1l-1-1 1-1v-2h-1l-1 1-2 1-2 1-1 1h-1l-1 1-1 1-1 1h-1v1h13l1 1h1v1h1v2h1v1l-1 2v1l-1 1h-1v1h-1l-1 1h-1l-1 1h-2v1h-1l-1 1h-2 1-1v1h-1 1l-1 1zm-4 1h-1v1h-1v-1h2zm0 0zm-4 1h1-1zm0 0zm17-21z" fill="#E61C5D"/>
  </defs>
  <mask id="a" maskUnits="userSpaceOnUse" x="0" y="0" width="100" height="100">
    <circle cx="50" cy="50" r="50" fill="#C4C4C4"/>
  </mask>
  <g mask="url(#a)">
    <circle cx="50" cy="50" r="50" fill="#00153D"/>
    <use xlink:href="#b"/>
    <use y="-33" xlink:href="#b"/>
    <use y="-66" xlink:href="#b"/>
    <path d="M18.984 60.653h-6.567l-3.741-7.801H5.73v7.801H0V37.415h11.143c4.935 0 7.761 3.403 7.761 7.718 0 4.025-2.348 6.183-4.457 6.972l4.537 8.548zm-8.716-13.03c1.552 0 2.786-.871 2.786-2.49 0-1.618-1.234-2.49-2.786-2.49H5.73v4.98h4.537zm28.694 13.03H22.645V37.415h16.317v5.229H28.376v3.61h10.347v5.228H28.376v3.942h10.586v5.229zm25.55 0h-6.527l-1.114-3.361h-8.795l-1.115 3.361h-6.526l8.397-23.238h7.243l8.437 23.238zm-9.193-8.548l-2.826-8.756-2.825 8.756h5.651zm21.252 8.963c-6.845 0-12.059-4.897-12.059-12.034C64.512 41.855 69.726 37 76.571 37c5.373 0 8.278 3.154 9.71 6.183l-4.934 2.49c-.717-1.826-2.627-3.361-4.776-3.361-3.661 0-6.208 2.904-6.208 6.722 0 3.818 2.586 6.722 6.208 6.722 2.15 0 4.06-1.535 4.776-3.36l4.935 2.447c-1.433 2.947-4.338 6.225-9.711 6.225zm23.481-.415h-5.731v-18.01h-6.248v-5.228H106.3v5.229h-6.248v18.009z" fill="#FFE98A"/>
  </g>
</svg>
